<?xml version="1.0" encoding="utf-8"?>
<!-- Generator: Adobe Illustrator 19.0.0, SVG Export Plug-In . SVG Version: 6.00 Build 0)  -->
<svg version="1.1" id="图形" xmlns="http://www.w3.org/2000/svg" xmlns:xlink="http://www.w3.org/1999/xlink" x="0px" y="0px"
	 viewBox="512 0 512 512" style="enable-background:new 512 0 512 512;" xml:space="preserve">
<style type="text/css">
	.st0{fill:#272636;}
</style>
<path class="st0" d="M954.7,332.3v-87.9H779v-65.9h54.9V24.8H702.1v153.7H757v65.9H603.3h-22v87.9h-54.9V486h131.8V332.3h-54.9
	v-65.9H757v65.9h-54.9V486h131.8V332.3H779v-65.9h153.7v65.9h-54.9V486h131.8V332.3H954.7z M724.1,156.6V46.8H812v109.8H724.1z
	 M636.2,354.2V464h-87.9V354.2H636.2z M811.9,354.2V464h-87.8V354.2H811.9z M987.6,464h-87.9V354.2h87.9V464z"/>
</svg>
